/* XPM */
static char *result[] = {
/* columns rows colors chars-per-pixel */
"32 32 198 2 ",
"   c #000001",
".  c #090504",
"X  c #03060A",
"o  c #06080D",
"O  c #090A0F",
"+  c #020517",
"@  c #060B12",
"#  c #090C13",
"$  c #0B0E19",
"%  c #0C121C",
"&  c #10151D",
"*  c #0F1722",
"=  c #0F1927",
"-  c #07192B",
";  c #111723",
":  c #131C2A",
">  c #0D1E35",
",  c #131D32",
"<  c #0C253C",
"1  c #152334",
"2  c #1A2434",
"3  c #14253C",
"4  c #192539",
"5  c #162839",
"6  c #1C2B3C",
"7  c #223639",
"8  c #2F4238",
"9  c #35463D",
"0  c #0F2845",
"q  c #142C43",
"w  c #1A2B44",
"e  c #172F49",
"r  c #1D2F4B",
"t  c #0E3344",
"y  c #1B3246",
"u  c #163448",
"i  c #1C344B",
"p  c #1D3A4D",
"a  c #1F3855",
"s  c #202D46",
"d  c #212F4A",
"f  c #223345",
"g  c #23344D",
"h  c #233B4D",
"j  c #223653",
"k  c #263755",
"l  c #233B53",
"z  c #2A3B53",
"x  c #233D5A",
"c  c #2A3E5A",
"v  c #2E4645",
"b  c #354846",
"n  c #354D4C",
"m  c #3E544A",
"M  c #2B4355",
"N  c #284755",
"B  c #26415C",
"V  c #2A445B",
"C  c #2C4B5C",
"Z  c #32435E",
"A  c #344C5E",
"S  c #2E4363",
"D  c #2A4967",
"F  c #2B4D64",
"G  c #334461",
"H  c #354A65",
"J  c #354768",
"K  c #334C6B",
"L  c #3B4B69",
"P  c #2F5366",
"I  c #345363",
"U  c #3B5966",
"Y  c #34536D",
"T  c #3A516D",
"R  c #2D4E70",
"E  c #3B4D72",
"W  c #355371",
"Q  c #3B5372",
"!  c #395B75",
"~  c #3C557A",
"^  c #3C6274",
"/  c #3A6079",
"(  c #455749",
")  c #445959",
"_  c #4C604E",
"`  c #566749",
"'  c #466759",
"]  c #5C735A",
"[  c #5A795E",
"{  c #647B5A",
"}  c #435C68",
"|  c #435A77",
" . c #43557B",
".. c #425A79",
"X. c #486667",
"o. c #4C666C",
"O. c #546C61",
"+. c #567268",
"@. c #4C6C77",
"#. c #466A7A",
"$. c #587773",
"%. c #718959",
"&. c #5E807A",
"*. c #65836A",
"=. c #788B60",
"-. c #7A9268",
";. c #718F7C",
":. c #74927B",
">. c #A7B53D",
",. c #97A64C",
"<. c #9BAC4B",
"1. c #95A450",
"2. c #9EA953",
"3. c #859C69",
"4. c #8DA86E",
"5. c #93A562",
"6. c #99AC63",
"7. c #93A968",
"8. c #94A86A",
"9. c #8EA57B",
"0. c #92AB78",
"q. c #9EB176",
"w. c #A1AE69",
"e. c #A9BA6E",
"r. c #AFBD78",
"t. c #B1BF71",
"y. c #B7C053",
"u. c #CBD65F",
"i. c #D1DB5F",
"p. c #D3DC68",
"a. c #C7CF73",
"s. c #D5DE7B",
"d. c #435E81",
"f. c #485886",
"g. c #416383",
"h. c #496584",
"j. c #4C648C",
"k. c #476C89",
"l. c #55688C",
"z. c #4D7783",
"x. c #4B718D",
"c. c #537B83",
"v. c #5A7D84",
"b. c #56748D",
"n. c #4D6790",
"m. c #4D6C96",
"M. c #546490",
"N. c #506D92",
"B. c #596992",
"V. c #556E9B",
"C. c #596B9C",
"Z. c #4F7492",
"A. c #4D759B",
"S. c #537B95",
"D. c #5B759A",
"F. c #597A98",
"G. c #5B7B9B",
"H. c #627B86",
"J. c #617A9A",
"K. c #597AA4",
"L. c #5E7DA9",
"P. c #637CA2",
"I. c #607DAE",
"U. c #5D8583",
"Y. c #5B869F",
"T. c #688A87",
"R. c #62858C",
"E. c #748F87",
"W. c #769586",
"Q. c #638795",
"!. c #678E94",
"~. c #6A8D92",
"^. c #669794",
"/. c #6C9292",
"(. c #709A97",
"). c #5882A2",
"_. c #5D82B0",
"`. c #6486AB",
"'. c #6886B2",
"]. c #638AB4",
"[. c #78A7A5",
"{. c #97AC82",
"}. c #94B395",
"|. c #A3BB87",
" X c #A3BA92",
".X c #87A6A5",
"XX c #A1C19E",
"oX c #B1CCAD",
"OX c #D4DC87",
"+X c #C9D6A3",
"@X c #D2DCA1",
"#X c #DCE3A3",
"$X c #E4E9AF",
"%X c #E5E9B2",
"&X c #F3F5BA",
"*X c #F5F7C8",
"=X c #F7F9D1",
"-X c #FBFBE6",
/* pixels */
"                        X X X X X X @ @                         ",
"                                          # X                   ",
"                    X 1 z H | k.A.Z.h.T 6     O                 ",
"                O 6 z K ! T W Y K T ~ K.L.N.M   O               ",
"            o : f M V g q 0 u l l y q y V k.'.l.    X           ",
"          X 2 f p < e F / #.I N h h V N M 3 H P.l.- X           ",
"        o : 6 5 p k.).Y.S.z.z./ ! u y h C Y y < J.F.  #         ",
"        % 1 1 Y G.).#.I P c.T.!././.@.C p C ! M q J.|   @       ",
"      o : y n.`.k.l u &.^.^.&.+.$.;.^.(.X.6 P / i Q '.w   X     ",
"    X % 3 A._.I 5 P Y.U.' ( { %.%.{ _ U.[.@.t #.W t J.h.  O     ",
"    @ X d.].W i C !.&.8 ` -.4.7.7.0.{.` ^.[.< U x.< h.G.+ #     ",
"    @ 3 `.m.i u c.c.7 [ |.r.<.<.<.,.6.{.*..XU N x.C H ).5 #     ",
"  o   Q I.R u @.R.v +.}.+X%X$Xs.p.y.,.q.4..X@.u S.W B ].B   o   ",
"    > P.m.i B Q.X.7 W. Xe.a.*X-X*Xp.>.6.}..Xo.6 x.! g _.K   @   ",
"X   z '.~ q Q G.p m W.q.w.<.i.&X-X=XOXt.oXW.b z k.F S _.c $ @   ",
"X   H L.D i h.F.t ) W.:.q.1.y.u.p.#X%X@XXX' b I Z.a ! L.r = o   ",
"    Q C.S a S.F.< } E.] 9.7.1.2.2.<.e.XX*.n n b...> k.A.> : o   ",
"X    .n.a i x.S.6 V W.O.*.0.8.7.1.8.5.{ ( v } b.a g _.~ , = X   ",
"X   E j.j a g.F.h u $.;.9 ] -.3.3.=.] m v X.H.L < N.L.w 4 * X   ",
"    G j.k a Y S.M p N (.T.b 9 ( ( b 8 v @.~...3 K ].W w , #     ",
"    g j.c d J F.A p p ^ !.T.+.X.X.X.+.v.U.| d G K.g.w g : X     ",
"    :  .c 6 k n.| f z y F z.T.^./.~.R.@.A j  .N.~ g k s % X     ",
"  X   Z H 2 w T C.L i h p p D P H C p g Y h. .Z r r z 2 X       ",
"      2 G f 6 z n.G.V x B a p j p z H T T G j j c G d @ X       ",
"    X # f z 2 6 z Z.D.T l l k k z c c c d r J f.E k = X         ",
"      X % 6 7 6 4 y j.J.h.L g j w r k z G  .C.f.j $ o           ",
"        X # 6 6 : , 6 d.D.K.V.M.M.M.B.V.f. .J w O X             ",
"          X % : : : : s S ~ V.C.C.V.j.~ z 3 $ @ X               ",
"          X X O @ & ; * ; : , > q w : . O @ @ X                 ",
"              . X O O $ % $ # & $ @ o @ @                       ",
"                X X X   X X @ X X   X                           ",
"                      X X                                       "
};
