/* XPM */
static char *result[] = {
/* columns rows colors chars-per-pixel */
"32 32 9 1 ",
"  c #29366F",
". c #257179",
"X c #38B764",
"o c #A7F070",
"O c #3B5DC9",
"+ c #41A6F6",
"@ c #73EFF7",
"# c #F4F4F4",
"$ c None",
/* pixels */
"$$$$$$$$$$$$$$$$$$$$$$$$$$$$$$$$",
"$$$$$$$$$$$$###$$###$$$$$$$$$$$$",
"$$$$$$$$$$$#X.#$$#Xo#$$$$$$$$$$$",
"$$$$$$$$$$$#X.#$$#Xo#$$$$$$$$$$$",
"$$$$$$$$$$#.X.#$$#XoX#$$$$$$$$$$",
"$$$$$$$$$$#XX. ##.Xoo#$$$$$$$$$$",
"$$$$$$$$$$#.X.  ..XoX#$$$$$$$$$$",
"$$$$$$$$$$#XX. O+.Xoo#$$$$$$$$$$",
"$$$$$$$$$$#.X.O+@+XoX#$$$$$$$$$$",
"$$$$$$$$$$#XX.++@@Xoo#$$$$$$$$$$",
"$$$$$$$$$$#.#.++@@X#X#$$$$$$$$$$",
"$$$$$$$$$$## .++@@X.##$$$$$$$$$$",
"$$$$$$$$$$#  .+O+@X..#$$$$$$$$$$",
"$$$$$$$$$#  ..O .+XX..#$$$$$$$$$",
"$$$$$$$$$#  ..  ..XX..#$$$$$$$$$",
"$$$$$$$$$# ...  ..XXX.#$$$$$$$$$",
"$$$$$$$$## ...  ..XXX.##$$$$$$$$",
"$$$$$$$#X#.. .  ..X.XX#o#$$$$$$$",
"$$$$$$#XX#....  ..XXXX#oo#$$$$$$",
"$$$$$#XXX#.. .  ..X.XX#ooo#$$$$$",
"$$$$#XXXX#.. .  ..X.XX#oooo#$$$$",
"$$$#XXX.XX#...  ..XXX#ooXooo#$$$",
"$$#XXX.XXXX#... .XXX#ooooXooo#$$",
"$$#XXXXX....#...XXX#XXXXooooo#$$",
"$$#X.XX......#..XX#XXXXXXooXo#$$",
"$$#.XX..XXXXXX####ooooooXXooX#$$",
"$$#XX..########$$########XXoo#$$",
"$$#X..#$#   #$$$$$$#...#$#XXo#$$",
"$$#..#$$$###$$$$$$$$###$$$#XX#$$",
"$$#.#$$$$$$$$$$$$$$$$$$$$$$#X#$$",
"$$##$$$$$$$$$$$$$$$$$$$$$$$$##$$",
"$$#$$$$$$$$$$$$$$$$$$$$$$$$$$#$$"
};
